<svg width="18" height="22" viewBox="0 0 18 22" fill="none" xmlns="http://www.w3.org/2000/svg">
<path d="M5.82856 20.179L2.65576 17.0062H16.8038C16.9629 17.0062 17.1155 16.943 17.228 16.8304C17.3405 16.7179 17.4038 16.5653 17.4038 16.4062C17.4038 16.247 17.3405 16.0944 17.228 15.9819C17.1155 15.8694 16.9629 15.8062 16.8038 15.8062H2.64976L5.82976 12.6274C5.94226 12.5147 6.00541 12.362 6.00529 12.2027C6.00518 12.0435 5.94182 11.8909 5.82916 11.7784C5.7165 11.6659 5.56375 11.6027 5.40454 11.6028C5.24532 11.6029 5.09266 11.6663 4.98016 11.779L0.79216 15.967L0.78016 15.979C0.724261 16.0347 0.679906 16.1009 0.649636 16.1738C0.619366 16.2467 0.603777 16.3248 0.60376 16.4038V16.4062C0.60374 16.4938 0.622966 16.5804 0.660082 16.6598C0.697198 16.7393 0.751297 16.8096 0.81856 16.8658L4.98016 21.0286C5.03594 21.0843 5.10216 21.1284 5.17501 21.1586C5.24787 21.1887 5.32595 21.2042 5.40478 21.2041C5.48362 21.204 5.56167 21.1885 5.63449 21.1582C5.7073 21.128 5.77345 21.0838 5.82916 21.028C5.88487 20.9722 5.92904 20.906 5.95916 20.8331C5.98928 20.7603 6.00475 20.6822 6.00469 20.6033C6.00464 20.5245 5.98905 20.4465 5.95883 20.3736C5.92861 20.3008 5.88435 20.2347 5.82856 20.179ZM12.179 1.82737L15.3518 5.00017H1.20376C1.04463 5.00017 0.892018 5.06339 0.779496 5.17591C0.666974 5.28843 0.60376 5.44104 0.60376 5.60017C0.60376 5.7593 0.666974 5.91191 0.779496 6.02443C0.892018 6.13696 1.04463 6.20017 1.20376 6.20017L15.3578 6.20017L12.1778 9.38017C12.1221 9.43596 12.0779 9.50217 12.0478 9.57502C12.0176 9.64788 12.0022 9.72596 12.0022 9.80479C12.0023 9.96401 12.0657 10.1167 12.1784 10.2292C12.291 10.3417 12.4438 10.4048 12.603 10.4047C12.7622 10.4046 12.9149 10.3412 13.0274 10.2286L17.2154 6.04057L17.2274 6.02857C17.2833 5.97262 17.3277 5.90621 17.3579 5.83312C17.3882 5.76002 17.4038 5.68168 17.4038 5.60257V5.60017C17.4037 5.51252 17.3844 5.42595 17.3473 5.34655C17.3102 5.26715 17.2562 5.19684 17.189 5.14057L13.0274 0.97897C12.972 0.921665 12.9058 0.875956 12.8326 0.844509C12.7594 0.813065 12.6807 0.796511 12.601 0.79582C12.5213 0.795128 12.4423 0.81031 12.3686 0.840479C12.2948 0.870647 12.2279 0.915199 12.1715 0.971535C12.1152 1.02787 12.0706 1.09486 12.0405 1.1686C12.0103 1.24234 11.9951 1.32134 11.9958 1.40101C11.9965 1.48068 12.0131 1.55941 12.0445 1.63261C12.0759 1.70582 12.1217 1.77202 12.179 1.82737Z" fill="#787878"/>
</svg>
