<svg width="17" height="22" fill="none" xmlns="http://www.w3.org/2000/svg">
<path d="M0 5.75002L0.00699997 5.85002C0.0312051 6.02994 0.119846 6.19497 0.256479 6.3145C0.393112 6.43403 0.568462 6.49995 0.75 6.50002H13.442L10.224 9.72002L10.152 9.80402C10.0389 9.95623 9.98759 10.1456 10.0085 10.3341C10.0294 10.5226 10.1209 10.6962 10.2647 10.8199C10.4084 10.9436 10.5937 11.0083 10.7832 11.0009C10.9727 10.9935 11.1523 10.9146 11.286 10.78L15.786 6.27602L15.858 6.19202C15.9647 6.04755 16.016 5.86958 16.0026 5.69047C15.9892 5.51137 15.912 5.34301 15.785 5.21602L11.285 0.719023L11.201 0.647022C11.0564 0.540035 10.8783 0.488552 10.6989 0.501951C10.5196 0.51535 10.351 0.592743 10.224 0.720022L10.152 0.804024C10.045 0.948574 9.99353 1.12675 10.0069 1.30609C10.0203 1.48543 10.0977 1.65398 10.225 1.78102L13.446 5.00002H0.75L0.648 5.00602C0.468446 5.03067 0.303892 5.1195 0.184767 5.25609C0.0656429 5.39268 7.6429e-06 5.56779 0 5.74902L0 5.75002ZM0.22 16.786L4.715 21.28L4.799 21.353C4.94347 21.4597 5.12144 21.5111 5.30055 21.4977C5.47966 21.4843 5.64801 21.407 5.775 21.28L5.848 21.196C5.95471 21.0516 6.00604 20.8736 5.99264 20.6945C5.97925 20.5154 5.90202 20.347 5.775 20.22L2.557 17.003H15.255L15.357 16.995C15.5366 16.9704 15.7011 16.8815 15.8202 16.745C15.9394 16.6084 16.005 16.4333 16.005 16.252L15.998 16.151C15.9736 15.9713 15.8848 15.8065 15.7482 15.6872C15.6116 15.5678 15.4364 15.5021 15.255 15.502L2.559 15.503L5.776 12.28L5.848 12.196C5.95971 12.0437 6.00985 11.8549 5.98838 11.6672C5.96691 11.4795 5.87543 11.3069 5.7322 11.1837C5.58897 11.0606 5.40456 10.996 5.2158 11.0029C5.02704 11.0099 4.84784 11.0877 4.714 11.221L0.22 15.725L0.148 15.81C0.0412859 15.9545 -0.0100386 16.1325 0.00335789 16.3116C0.0167544 16.4907 0.0939825 16.659 0.221 16.786H0.22Z" fill="#BF13BF"/>
</svg>
