<svg width="18" height="19" viewBox="0 0 18 19" fill="none" xmlns="http://www.w3.org/2000/svg">
<path d="M8.07339 0.619604C8.34392 0.427603 8.66746 0.324463 8.9992 0.324463C9.33093 0.324463 9.65446 0.427603 9.92499 0.619604L16.9474 5.602C17.8198 6.2212 17.383 7.5964 16.3138 7.5988H1.68819C0.615393 7.5988 0.176192 6.2224 1.05219 5.602L8.07339 0.619604ZM8.99979 5.0488C9.26506 5.0488 9.51947 4.94342 9.70704 4.75585C9.89462 4.56828 10 4.31387 10 4.0486C10 3.78333 9.89462 3.52893 9.70704 3.34135C9.51947 3.15378 9.26506 3.0484 8.99979 3.0484C8.73452 3.0484 8.48012 3.15378 8.29255 3.34135C8.10497 3.52893 7.99959 3.78333 7.99959 4.0486C7.99959 4.31387 8.10497 4.56828 8.29255 4.75585C8.48012 4.94342 8.73452 5.0488 8.99979 5.0488ZM2.39979 8.8V13.6H4.79979V8.8H2.39979ZM0.599793 17.3992C0.599793 15.9628 1.76379 14.7988 3.19899 14.7988H14.7994C15.489 14.7991 16.1502 15.0732 16.6378 15.5608C17.1254 16.0484 17.3995 16.7096 17.3998 17.3992V17.7988C17.3998 17.9579 17.3366 18.1105 17.2241 18.2231C17.1115 18.3356 16.9589 18.3988 16.7998 18.3988H1.19979C1.04066 18.3988 0.88805 18.3356 0.775529 18.2231C0.663007 18.1105 0.599793 17.9579 0.599793 17.7988V17.3992ZM15.5998 8.7988V13.5988H13.1998V8.8H15.5998V8.7988ZM11.9998 8.7988V13.5988H9.59979V8.8H11.9998V8.7988ZM8.39979 8.7988V13.5988H5.99979V8.8H8.39979V8.7988Z" fill="white"/>
</svg>
