<svg width="18" height="18" viewBox="0 0 18 18" fill="none" xmlns="http://www.w3.org/2000/svg">
    <g clip-path="url(#clip0)">
        <path
            d="M15.5491 1.62338H2.45083C1.2951 1.62338 0.358154 2.56033 0.358154 3.71606V15.9073C0.358154 17.0631 1.2951 18 2.45083 18H15.5491C16.7048 18 17.6418 17.0631 17.6418 15.9073V3.71606C17.6418 2.56027 16.7048 1.62338 15.5491 1.62338Z"
            fill="#EBF0F3" />
        <path
            d="M17.6418 5.55528V3.01968C17.6418 1.86395 16.7048 0.927002 15.5491 0.927002H2.45083C1.2951 0.927002 0.358154 1.86395 0.358154 3.01968V5.55528H17.6418Z"
            fill="#CE412D" />
        <path
            d="M17.6418 6.02836V3.71606C17.6418 2.56033 16.7048 1.62338 15.5491 1.62338H2.45083C1.2951 1.62338 0.358154 2.56033 0.358154 3.71606V6.02836H17.6418Z"
            fill="#E56353" />
        <path
            d="M3.78605 2.74728C3.38267 2.74728 3.05566 3.07429 3.05566 3.47767C3.05566 3.88104 3.38267 4.20799 3.78605 4.20799C4.18943 4.20799 4.51637 3.88098 4.51637 3.47767C4.51643 3.07429 4.18943 2.74728 3.78605 2.74728Z"
            fill="#D15241" />
        <path
            d="M3.786 0C3.57023 0 3.39526 0.174966 3.39526 0.39074V3.43511C3.39526 3.65094 3.57023 3.82585 3.786 3.82585C4.00178 3.82585 4.17674 3.65094 4.17674 3.43511V0.39074C4.17674 0.174966 4.00184 0 3.786 0V0Z"
            fill="#4D5C7D" />
        <path
            d="M7.26188 2.74728C6.8585 2.74728 6.53149 3.07429 6.53149 3.47767C6.53149 3.88104 6.8585 4.20799 7.26188 4.20799C7.66526 4.20799 7.9922 3.88098 7.9922 3.47767C7.99226 3.07429 7.66526 2.74728 7.26188 2.74728Z"
            fill="#D15241" />
        <path
            d="M7.26183 0C7.04606 0 6.87109 0.174966 6.87109 0.39074V3.43511C6.87109 3.65094 7.04606 3.82585 7.26183 3.82585C7.47761 3.82585 7.65257 3.65094 7.65257 3.43511V0.39074C7.65257 0.174966 7.47761 0 7.26183 0V0Z"
            fill="#4D5C7D" />
        <path
            d="M10.7382 2.74728C10.3348 2.74728 10.0078 3.07429 10.0078 3.47767C10.0078 3.88104 10.3348 4.20799 10.7382 4.20799C11.1416 4.20799 11.4685 3.88098 11.4685 3.47767C11.4685 3.07429 11.1416 2.74728 10.7382 2.74728Z"
            fill="#D15241" />
        <path
            d="M10.7381 0C10.5224 0 10.3474 0.174966 10.3474 0.39074V3.43511C10.3474 3.65094 10.5224 3.82585 10.7381 3.82585C10.9539 3.82585 11.1289 3.65094 11.1289 3.43511V0.39074C11.1289 0.174966 10.9539 0 10.7381 0V0Z"
            fill="#4D5C7D" />
        <path
            d="M14.214 2.74728C13.8106 2.74728 13.4836 3.07429 13.4836 3.47767C13.4836 3.88104 13.8106 4.20799 14.214 4.20799C14.6174 4.20799 14.9443 3.88098 14.9443 3.47767C14.9443 3.07429 14.6173 2.74728 14.214 2.74728Z"
            fill="#D15241" />
        <path
            d="M14.214 0C13.9982 0 13.8232 0.174966 13.8232 0.39074V3.43511C13.8232 3.65094 13.9982 3.82585 14.214 3.82585C14.4297 3.82585 14.6047 3.65094 14.6047 3.43511V0.39074C14.6047 0.174966 14.4298 0 14.214 0V0Z"
            fill="#4D5C7D" />
        <path d="M6.73535 8.91968H8.31499V10.4993H6.73535V8.91968Z" fill="#E56353" />
        <path d="M9.68481 8.91968H11.2644V10.4993H9.68481V8.91968Z" fill="#E56353" />
        <path d="M12.6345 8.91968H14.2142V10.4993H12.6345V8.91968Z" fill="#E56353" />
        <path d="M3.78589 11.396H5.36552V12.9756H3.78589V11.396Z" fill="#E56353" />
        <path d="M6.73535 11.396H8.31499V12.9756H6.73535V11.396Z" fill="#E56353" />
        <path d="M9.68481 11.396H11.2644V12.9756H9.68481V11.396Z" fill="#E56353" />
        <path d="M12.6345 11.396H14.2142V12.9756H12.6345V11.396Z" fill="#E56353" />
        <path d="M3.78589 13.8723H5.36552V15.4519H3.78589V13.8723Z" fill="#E56353" />
        <path d="M6.73535 13.8723H8.31499V15.4519H6.73535V13.8723Z" fill="#E56353" />
        <path d="M9.68481 13.8723H11.2644V15.4519H9.68481V13.8723Z" fill="#E56353" />
    </g>
    <defs>
        <clipPath id="clip0">
            <rect width="18" height="18" fill="white" />
        </clipPath>
    </defs>
</svg>
