<svg width="18" height="14" viewBox="0 0 18 14" fill="none" xmlns="http://www.w3.org/2000/svg">
<path d="M0 2.79999C0 2.16347 0.252856 1.55302 0.702944 1.10294C1.15303 0.65285 1.76348 0.399994 2.4 0.399994H15.6C16.2365 0.399994 16.847 0.65285 17.2971 1.10294C17.7471 1.55302 18 2.16347 18 2.79999V4.59999H0V2.79999ZM0 5.79999H18V11.2C18 11.8365 17.7471 12.447 17.2971 12.897C16.847 13.3471 16.2365 13.6 15.6 13.6H2.4C1.76348 13.6 1.15303 13.3471 0.702944 12.897C0.252856 12.447 0 11.8365 0 11.2V5.79999ZM13.2 10.6C13.0409 10.6 12.8883 10.6632 12.7757 10.7757C12.6632 10.8883 12.6 11.0409 12.6 11.2C12.6 11.3591 12.6632 11.5117 12.7757 11.6243C12.8883 11.7368 13.0409 11.8 13.2 11.8H15.6C15.7591 11.8 15.9117 11.7368 16.0243 11.6243C16.1368 11.5117 16.2 11.3591 16.2 11.2C16.2 11.0409 16.1368 10.8883 16.0243 10.7757C15.9117 10.6632 15.7591 10.6 15.6 10.6H13.2Z" fill="white"/>
</svg>
