<svg width="20" height="12" viewBox="0 0 20 12" fill="none" xmlns="http://www.w3.org/2000/svg">
<path d="M1.912 7.9224C2.7304 3.9924 6.1516 1.2 10 1.2C13.8472 1.2 17.2684 3.9924 18.088 7.9224C18.1205 8.07835 18.2135 8.21501 18.3468 8.30233C18.48 8.38965 18.6425 8.42046 18.7984 8.388C18.9543 8.35554 19.091 8.26246 19.1783 8.12923C19.2656 7.996 19.2965 7.83355 19.264 7.6776C18.3316 3.2076 14.4316 0 10 0C5.5684 0 1.6684 3.2076 0.735996 7.6776C0.703533 7.83355 0.73435 7.996 0.821667 8.12923C0.908984 8.26246 1.04565 8.35554 1.2016 8.388C1.35754 8.42046 1.52 8.38965 1.65322 8.30233C1.78645 8.21501 1.87953 8.07835 1.912 7.9224ZM10 3.6C8.88609 3.6 7.8178 4.0425 7.03015 4.83015C6.2425 5.6178 5.8 6.68609 5.8 7.8C5.8 8.91391 6.2425 9.9822 7.03015 10.7698C7.8178 11.5575 8.88609 12 10 12C11.1139 12 12.1822 11.5575 12.9698 10.7698C13.7575 9.9822 14.2 8.91391 14.2 7.8C14.2 6.68609 13.7575 5.6178 12.9698 4.83015C12.1822 4.0425 11.1139 3.6 10 3.6ZM7 7.8C7 7.00435 7.31607 6.24129 7.87868 5.67868C8.44129 5.11607 9.20435 4.8 10 4.8C10.7956 4.8 11.5587 5.11607 12.1213 5.67868C12.6839 6.24129 13 7.00435 13 7.8C13 8.59565 12.6839 9.35871 12.1213 9.92132C11.5587 10.4839 10.7956 10.8 10 10.8C9.20435 10.8 8.44129 10.4839 7.87868 9.92132C7.31607 9.35871 7 8.59565 7 7.8Z" fill="#333333"/>
</svg>
