<svg width="20" height="20" viewBox="0 0 20 20" fill="none" xmlns="http://www.w3.org/2000/svg">
<path d="M1.42485 0.575196C1.36906 0.519411 1.30284 0.47516 1.22995 0.444969C1.15706 0.414778 1.07894 0.399239 1.00005 0.399239C0.921157 0.399239 0.843037 0.414778 0.77015 0.444969C0.697262 0.47516 0.631035 0.519411 0.57525 0.575196C0.519464 0.630982 0.475213 0.697209 0.445022 0.770096C0.414831 0.842984 0.399292 0.921104 0.399292 0.999997C0.399292 1.07889 0.414831 1.15701 0.445022 1.2299C0.475213 1.30278 0.519464 1.36901 0.57525 1.4248L4.77525 5.6224C2.69514 7.0412 1.24702 9.21208 0.73605 11.6776C0.719976 11.7547 0.719253 11.8343 0.733923 11.9117C0.748592 11.9891 0.778366 12.0629 0.821545 12.1288C0.864725 12.1947 0.920463 12.2515 0.985579 12.2958C1.05069 12.3402 1.12391 12.3713 1.20105 12.3874C1.27819 12.4035 1.35774 12.4042 1.43516 12.3895C1.51257 12.3749 1.58634 12.3451 1.65225 12.3019C1.71817 12.2587 1.77493 12.203 1.8193 12.1379C1.86367 12.0728 1.89478 11.9995 1.91085 11.9224C2.13991 10.8142 2.58776 9.7628 3.22816 8.82981C3.86857 7.89681 4.68867 7.10094 5.64045 6.4888L7.54005 8.3872C7.04496 8.74231 6.63306 9.20089 6.33293 9.73111C6.0328 10.2613 5.85162 10.8505 5.80197 11.4578C5.75232 12.065 5.83538 12.6758 6.04539 13.2477C6.2554 13.8197 6.58733 14.3391 7.01815 14.7699C7.44898 15.2007 7.96838 15.5326 8.54031 15.7427C9.11225 15.9527 9.72303 16.0357 10.3303 15.9861C10.9375 15.9364 11.5267 15.7552 12.0569 15.4551C12.5872 15.155 13.0457 14.7431 13.4008 14.248L18.5764 19.4248C18.6891 19.5375 18.8419 19.6008 19.0012 19.6008C19.1606 19.6008 19.3134 19.5375 19.426 19.4248C19.5387 19.3121 19.602 19.1593 19.602 19C19.602 18.8407 19.5387 18.6879 19.426 18.5752L1.42605 0.575196H1.42485ZM10.1488 7.6036L14.1844 11.6392C14.1438 10.5819 13.7056 9.57884 12.9574 8.83065C12.2092 8.08246 11.2062 7.64423 10.1488 7.6036ZM7.03605 4.492L7.99965 5.4556C8.65291 5.28592 9.32511 5.20003 10 5.2C13.8472 5.2 17.2684 7.9924 18.088 11.9224C18.1205 12.0783 18.2136 12.215 18.3468 12.3023C18.48 12.3896 18.6425 12.4205 18.7984 12.388C18.9544 12.3555 19.0911 12.2625 19.1784 12.1292C19.2657 11.996 19.2965 11.8335 19.264 11.6776C18.3316 7.2076 14.4316 4 10 4C8.97405 4 7.97565 4.1716 7.03725 4.492H7.03605Z" fill="#333333"/>
</svg>
