<svg id="Login_page_vector" data-name="Login page vector" xmlns="http://www.w3.org/2000/svg"
    width="183.168" height="161" viewBox="0 0 183.168 161">
    <defs>
        <clipPath id="clip-path">
            <rect id="Rectangle_4" data-name="Rectangle 4" width="143.838" height="137.257"
                transform="translate(26.581 23.743)" fill="#fff" />
        </clipPath>
        <linearGradient id="linear-gradient" x1="0.5" x2="0.5" y2="1"
            gradientUnits="objectBoundingBox">
            <stop offset="0" stop-color="#cfdfff" />
            <stop offset="1" stop-color="#9cbeff" stop-opacity="0" />
        </linearGradient>
    </defs>
    <g id="Group_55" data-name="Group 55" clip-path="url(#clip-path)">
        <path id="Path_469" data-name="Path 469"
            d="M92.7,123.72l0-.776c.044-.83.092-1.723.135-2.659l-7.278,14.029a6.611,6.611,0,0,1-4.712,3.47l-17.688.335-3.857.7-6.027,1.611A68.085,68.085,0,0,0,92,160.262l.145-17.62Z"
            opacity="0.13" fill="url(#linear-gradient)" />
        <path id="Path_470" data-name="Path 470"
            d="M170.419,92.371A68.348,68.348,0,1,0,38.151,116.718a6.624,6.624,0,0,1,5.833-6.954,6.467,6.467,0,0,1,1.194-.029,6.609,6.609,0,0,1,4.586,2.3q.79,3.108,1.846,6.1l1.29,11.113,3.388-.6,19.061-3.373L85.2,106.3a7.9,7.9,0,0,1,7.641-9.764c.044,0,.087,0,.126,0a.108.108,0,0,0,0-.039h6.621v0a13.049,13.049,0,0,0,5.273-1.4.213.213,0,0,0,.029.039l-.779.461-3.151,12.967,4.321,1.082-2.88,5.421,12.082,24,2.247,3.315,2.851,5.687.01-.3,1.256-3.6L135.5,115.068l-2.88-5.421,4.321-1.082L133.787,95.6l-.778-.461a.21.21,0,0,1,.029-.039,13.119,13.119,0,0,0,5.272,1.4v0h7.5s3.851-.068,5.06,1.155L145.9,116.145l-.01,0v.044l-.005.024.005.015c.019,6.246.179,13.224.594,20.469l-.149-.665.13,8.536A68.624,68.624,0,0,0,170.419,92.371Z"
            opacity="0.13" fill="url(#linear-gradient)" />
        <path id="Path_471" data-name="Path 471"
            d="M146.482,136.682c-.415-7.245-.575-14.223-.594-20.469l-.005-.014.005-.025v-.043l.01.005,4.968-18.49c-1.208-1.218-5.06-1.155-5.06-1.155h-7.481v0a13.049,13.049,0,0,1-5.273-1.4.271.271,0,0,1-.029.039l.778.461,3.151,12.966-4.32,1.083,2.88,5.42-14.653,29.108-1.257,3.6-.009.3.86,1.713-1.131,9.022a68.143,68.143,0,0,0,27.141-14.238l-.13-8.537Z"
            fill="#fcfcfd" />
        <path id="Path_472" data-name="Path 472"
            d="M38.185,117.121l2.4,20.653a6.649,6.649,0,0,0,2.619,4.552c1.15.859,2.813-.543,4.224-.543a6.521,6.521,0,0,0,1.145-.1l4.7-1.257a68.709,68.709,0,0,1-15.127-23.711A3.761,3.761,0,0,0,38.185,117.121Z"
            fill="#fcfcfd" />
        <path id="Path_473" data-name="Path 473"
            d="M119.163,158.841l.42-10.764-2.851-5.688-2.247-3.314-12.082-24,2.88-5.421-4.321-1.082L104.113,95.6l.779-.461a.375.375,0,0,0-.029-.039,13.126,13.126,0,0,1-5.273,1.4v0H92.969a.106.106,0,0,0,0,.039c-.044,0-.082,0-.126,0a7.9,7.9,0,0,0-7.641,9.764l-9.854,18.984-19.061,3.373-3.388.6-1.29-11.113q-1.051-2.992-1.846-6.1a6.57,6.57,0,0,0-4.586-2.3,6.458,6.458,0,0,0-1.194.029,6.628,6.628,0,0,0-5.833,6.954,68.765,68.765,0,0,0,15.127,23.711l6.027-1.611,3.857-.7,17.688-.335a6.6,6.6,0,0,0,4.712-3.47l7.278-14.029c-.044.936-.092,1.829-.135,2.659l0,.776-.561,18.917L92,160.262a68.609,68.609,0,0,0,27.165-1.421Z"
            fill="#fcfcfd" />
        <path id="Path_474" data-name="Path 474"
            d="M119.322,158.8l1.126-9.007-.86-1.713-.421,10.764C119.216,158.826,119.269,158.811,119.322,158.8Z"
            fill="#fcfcfd" />
        <path id="Path_475" data-name="Path 475"
            d="M135.27,95.793c-3.073-4.241-8.341-6.391-15.658-6.391-8.293,0-14.131,2.213-17.355,6.58a.018.018,0,0,0,0,.01,16.9,16.9,0,0,0,3.412-1.407c3.146-2.46,7.819-3.7,13.947-3.7,5.345,0,9.492,1.194,12.377,3.562,1.015.51,2.527,1.131,3.359,1.461C135.319,95.865,135.294,95.831,135.27,95.793Z"
            fill="#13110c" />
        <path id="Path_476" data-name="Path 476"
            d="M51.31,115.582a6.624,6.624,0,0,0-1.547-3.547q.79,3.108,1.846,6.1Z" fill="#fcfcfd" />
        <path id="Path_477" data-name="Path 477" d="M119.6,147.776v-.184h-.605v.276l.31.748Z"
            fill="#edeced" />
        <path id="Path_478" data-name="Path 478"
            d="M119.3,148.616l-.31-.748v.456h.116c.165,0,.324,0,.484,0v-.544Z" fill="#edeced" />
        <path id="Path_479" data-name="Path 479" d="M145.888,116.214v-.04l-.005.025Z"
            fill="#134466" />
        <path id="Path_480" data-name="Path 480"
            d="M127.4,87.489l0,0V84.83H111.184v3.848h-.054a13.294,13.294,0,0,1-2.812,4.033C120.984,93.929,127.4,87.489,127.4,87.489Z"
            fill="#dcb69a" />
        <path id="Path_481" data-name="Path 481"
            d="M127.407,89.974V87.489l0,0s-6.418,6.445-19.079,5.227a13.337,13.337,0,0,1-3.311,2.383,17.2,17.2,0,0,0,6.176,5.42V104.1h.02v.242h15.416V104.1h.783v-3.921a17.209,17.209,0,0,0,5.582-5.13A13.287,13.287,0,0,1,127.407,89.974Z"
            fill="#f6cfad" />
        <path id="Path_482" data-name="Path 482"
            d="M130.437,97.816a16.944,16.944,0,0,1-22.443.675l11.3,50.134Z" fill="#dbdce4" />
        <path id="Path_483" data-name="Path 483"
            d="M122.193,140.39l2.551-6.27-3.035-28.51-2.4-.7v-.034l-.053.02-.053-.02v.034l-2.4.7-3.248,30.4,3.862,7.352,1.846,5.193.609-1.078,1.508-4.285Z"
            fill="#445879" />
        <path id="Path_484" data-name="Path 484"
            d="M122.932,100.927l-3.755-.519-3.76.519-.73,2.091,1.774,2.83,2.716.106,2.711-.106,1.774-2.83Z"
            fill="#445879" />
        <path id="Path_485" data-name="Path 485"
            d="M106.96,93.91l12.043,6.5-8.544,8.584L104.113,95.6Z" fill="#c9d1cd" />
        <path id="Path_486" data-name="Path 486"
            d="M131.075,93.91l-12.043,6.5,8.549,8.584,6.186-13.258Z" fill="#c9d1cd" />
        <path id="Path_487" data-name="Path 487"
            d="M139.934,59.1c0-14.675-8.786-19.3-20.211-19.3-.14,0-.28,0-.42,0V90.168C130.7,90.124,139.934,73.761,139.934,59.1Z"
            fill="#f6cfad" />
        <path id="Path_488" data-name="Path 488"
            d="M118.781,39.821c-11.009.359-20.206,5.008-20.206,19.28,0,14.476,9.008,30.728,20.206,31.053.159,0,.314.015.473.015h.049V39.806Z"
            fill="#e7c0a0" />
        <path id="Path_489" data-name="Path 489"
            d="M141.306,57.246a29.887,29.887,0,0,0-3.16-11.312c1.783-7.988-5.655-10.21-13.493-10.4a63.767,63.767,0,0,0-15.818,1.742,13.189,13.189,0,0,1-3.741.563c-1.087.034-1.914,0-1.914,0a8.03,8.03,0,0,0,.392.985c.179.408.353.781.353.781a2.955,2.955,0,0,1-1.044-.252,41.675,41.675,0,0,1-4.152-1.98,10.553,10.553,0,0,0,.812,5.426A10.858,10.858,0,0,0,100.769,45,5.223,5.223,0,0,1,99,44.537a14.483,14.483,0,0,0,.744,2.611c-2.789,2.043-3.436,7.949-3.489,12.564l4.784,5.61,1.653-4.028c.034,0,.068,0,.106.01,1.17-4.236,2.141-10.623,2.141-10.623,12.479,8.046,23.961,1.616,25.943.383.377-.412.575-.665.575-.665a23.885,23.885,0,0,0,6.128,13.5c-.454-3.416,3.451-6.1,3.745-6.294a.149.149,0,0,1,.029-.019C141.35,57.47,141.33,57.363,141.306,57.246Z"
            fill="#432b1b" />
        <path id="Path_490" data-name="Path 490"
            d="M137.223,62.526c-.778,2.994-.227,5.736,1.237,6.124s3.286-1.728,4.069-4.722.227-5.736-1.237-6.124S138.006,59.532,137.223,62.526Z"
            fill="#f6cfad" />
        <path id="Path_491" data-name="Path 491"
            d="M100.73,62.6c.812,2.926.387,5.6-.942,5.974s-3.064-1.7-3.871-4.625-.387-5.6.942-5.974S99.923,59.678,100.73,62.6Z"
            fill="#e7c0a0" />
        <path id="Path_492" data-name="Path 492"
            d="M119.3,148.63l-11.3-50.139L106.96,93.91l-2.069,1.228-.778.461-3.151,12.967,4.321,1.087-2.881,5.421Z"
            fill="#edeced" />
        <path id="Path_493" data-name="Path 493"
            d="M137.29,108.565,134.144,95.6l-.034-.019-2.89-1.553-.783,3.79L119.3,148.63l16.557-33.557-2.885-5.421Z"
            fill="#edeced" />
        <path id="Path_494" data-name="Path 494"
            d="M80.276,67.079,28.22,77.632l13.313,66.214L93.59,133.293Z" fill="#2b2d7b" />
        <path id="Path_495" data-name="Path 495"
            d="M78.239,71.12l-46.58,9.443,11.912,59.245,46.58-9.443Z" fill="#fff" />
        <path id="Path_496" data-name="Path 496" d="M42.141,94.4l-3.472.7.7,3.482,3.472-.7Z"
            fill="#3e9aff" />
        <path id="Path_497" data-name="Path 497" d="M74.422,87.853,45.6,93.7l.7,3.482,28.82-5.843Z"
            fill="#3e9aff" />
        <path id="Path_498" data-name="Path 498" d="M43.468,101.018,40,101.723l.7,3.482,3.472-.705Z"
            fill="#3e9aff" />
        <path id="Path_499" data-name="Path 499"
            d="M72.119,95.209l-25.187,5.107.7,3.482,25.187-5.107Z" fill="#3e9aff" />
        <path id="Path_500" data-name="Path 500" d="M44.8,107.636l-3.472.7.7,3.482,3.472-.7Z"
            fill="#3e9aff" />
        <path id="Path_501" data-name="Path 501" d="M71.056,102.314l-22.79,4.62.7,3.482,22.79-4.62Z"
            fill="#3e9aff" />
        <path id="Path_502" data-name="Path 502" d="M46.133,114.254l-3.472.7.7,3.482,3.472-.7Z"
            fill="#3e9aff" />
        <path id="Path_503" data-name="Path 503"
            d="M79.151,107.563,49.6,113.555l.7,3.482,29.555-5.992Z" fill="#3e9aff" />
        <path id="Path_504" data-name="Path 504" d="M48.164,124.361l-3.47.7-.7-3.485,3.47-.7Z"
            fill="#3e9aff" />
        <path id="Path_505" data-name="Path 505"
            d="M80.48,114.182l-29.555,5.992.7,3.482,29.555-5.992Z" fill="#3e9aff" />
        <path id="Path_506" data-name="Path 506"
            d="M30.051,108.395a2.579,2.579,0,0,0,.392-.029l7.6-1.087a2.752,2.752,0,0,0-.773-5.45l-7.6,1.087a2.754,2.754,0,0,0,.382,5.479Z"
            fill="#e7c0a0" />
        <path id="Path_507" data-name="Path 507"
            d="M29.659,114.364l7.442-.931a2.751,2.751,0,0,0-.681-5.46l-7.442.932a2.753,2.753,0,0,0,.338,5.484C29.432,114.384,29.548,114.379,29.659,114.364Z"
            fill="#e7c0a0" />
        <path id="Path_508" data-name="Path 508"
            d="M38.692,118.868a2.752,2.752,0,0,0-1.01-5.411l-7.443,1.4a2.755,2.755,0,0,0,.5,5.46,2.565,2.565,0,0,0,.507-.049Z"
            fill="#e7c0a0" />
        <path id="Path_509" data-name="Path 509"
            d="M42.278,121.047a2.446,2.446,0,0,0-2.822-2.024l-6.664,1.116a2.464,2.464,0,0,0,.4,4.892A2.317,2.317,0,0,0,33.6,125l6.664-1.116A2.459,2.459,0,0,0,42.278,121.047Z"
            fill="#e7c0a0" />
        <path id="Path_510" data-name="Path 510"
            d="M154.229,101.431c1.861,3.96.715,8.43-2.561,9.983s-7.443-.4-9.3-4.358-.715-8.429,2.561-9.982S152.369,97.467,154.229,101.431Z"
            fill="#fcfcfd" />
        <path id="Path_511" data-name="Path 511"
            d="M118.969,136.309a.914.914,0,1,1-.913-.917A.914.914,0,0,1,118.969,136.309Z"
            fill="#3b3739" />
        <path id="Path_512" data-name="Path 512"
            d="M121.743,136.581a.914.914,0,1,1-.913-.918A.915.915,0,0,1,121.743,136.581Z"
            fill="#3b3739" />
        <path id="Path_513" data-name="Path 513"
            d="M146.12,137.8c-3.92-2.747-11.981-4.125-19.273-4.518l-3.552,7.274,23.071,1.092Z"
            fill="#edeced" />
        <path id="Path_514" data-name="Path 514"
            d="M99.488,105.561a19.882,19.882,0,0,0,.682,4.9l1.406-.427c-.024-.078-2.228-7.658,1.861-13.181a11.86,11.86,0,0,1,2.223-2.271,16.9,16.9,0,0,1-3.412,1.407A15.436,15.436,0,0,0,99.488,105.561Z"
            fill="#13110c" />
        <path id="Path_515" data-name="Path 515" d="M135.623,115l.7.228Z" fill="#13110c" />
        <path id="Path_516" data-name="Path 516"
            d="M135.343,95.9c-.832-.335-2.344-.956-3.359-1.461a11.955,11.955,0,0,1,2.092,2.218c2.644,3.645,2.934,8.41,2.712,11.768a30.941,30.941,0,0,1-1.16,6.576l.7.228.7.228a31.745,31.745,0,0,0,1.228-6.891C138.6,103.445,137.59,99.073,135.343,95.9Z"
            fill="#13110c" />
        <path id="Path_517" data-name="Path 517"
            d="M140.934,115.223a4.475,4.475,0,1,1-4.475-4.493A4.484,4.484,0,0,1,140.934,115.223Z"
            fill="#edeced" />
        <path id="Path_518" data-name="Path 518"
            d="M136.454,120.042a4.819,4.819,0,1,1,4.8-4.819A4.815,4.815,0,0,1,136.454,120.042Zm0-8.992a4.174,4.174,0,1,0,4.156,4.173A4.17,4.17,0,0,0,136.454,111.05Z"
            fill="#13110c" />
        <path id="Path_519" data-name="Path 519"
            d="M138.743,117.524a3.245,3.245,0,1,0-4.579,0A3.26,3.26,0,0,0,138.743,117.524Z"
            fill="#bebbbb" />
        <path id="Path_520" data-name="Path 520"
            d="M101.136,139.526c-3.571-.189-3.992-2.494-4.011-2.591l-2.4-14.4,1.087-.185,2.4,14.4c.01.054.333,1.524,2.977,1.665Z"
            fill="#bebbbb" />
        <path id="Path_521" data-name="Path 521"
            d="M109.4,137.439c3.316-1.344,2.968-3.659,2.953-3.76l-2.4-14.4-1.087.185,2.4,14.4c.005.053.179,1.553-2.276,2.548Z"
            fill="#bebbbb" />
        <path id="Path_522" data-name="Path 522"
            d="M102.069,137.76c1.049.208,1.788.932,1.653,1.611s-1.092,1.063-2.141.854-1.788-.932-1.653-1.611S101.025,137.551,102.069,137.76Z"
            fill="#2b2d7b" />
        <path id="Path_523" data-name="Path 523"
            d="M107.936,136.775c-.923.538-1.392,1.465-1.044,2.067s1.377.65,2.305.107,1.392-1.466,1.044-2.068S108.859,136.236,107.936,136.775Z"
            fill="#2b2d7b" />
        <path id="Path_524" data-name="Path 524"
            d="M94.428,122.939a24.942,24.942,0,0,1-.116-6.4c.561-4.527,2.61-7.216,5.92-7.769,7.854-1.32,9.98,10.894,10.067,11.414l-1.633.276c-.02-.111-1.933-11.093-8.158-10.05-2.552.427-4.084,2.562-4.553,6.333a23.4,23.4,0,0,0,.106,5.916Z"
            fill="#2b2d7b" />
        <path id="Path_525" data-name="Path 525"
            d="M54.838,79.958a5.28,5.28,0,1,0,6.138,4.217A5.277,5.277,0,0,0,54.838,79.958Zm4.6,5.59L57.042,86l.449,2.4-2.083.393-.449-2.4-2.392.451-.391-2.092,2.392-.451-.449-2.4,2.083-.393.449,2.4,2.392-.451Z"
            fill="#d93c39" />
        <path id="Path_526" data-name="Path 526"
            d="M63.46,68.675,53.973,70.9l-9.608,1.65a11.07,11.07,0,0,1,.116,6.289l10.279-2.082.744-.15,10.444-2.116A12.122,12.122,0,0,1,63.46,68.675Z"
            fill="#2b2d7b" />
        <path id="Path_527" data-name="Path 527"
            d="M66.06,74.246a1.14,1.14,0,0,1-.889,1.344l-19.732,4a1.141,1.141,0,0,1-.45-2.237l19.732-4A1.142,1.142,0,0,1,66.06,74.246Z"
            fill="#3e9aff" />
        <path id="Path_528" data-name="Path 528"
            d="M63.842,68.709a1.029,1.029,0,0,1-.8,1.213L45.211,73.537a1.032,1.032,0,0,1-.411-2.024L62.629,67.9A1.036,1.036,0,0,1,63.842,68.709Z"
            fill="#3e9aff" />
        <path id="Path_529" data-name="Path 529"
            d="M59.3,68.112a5.856,5.856,0,1,0-11.478,2.325l.343,1.7,11.478-2.325ZM53.64,69.646a2.282,2.282,0,1,1,1.778-2.688A2.271,2.271,0,0,1,53.64,69.646Z"
            fill="#3e9aff" />
        <path id="Path_530" data-name="Path 530"
            d="M109.647,123.051a6.531,6.531,0,0,0,3.054,1.533l-.676,12.331a7.378,7.378,0,0,0-4,.486Z"
            fill="#e7c0a0" />
        <path id="Path_531" data-name="Path 531"
            d="M117.21,122.9l-4.746-.233a1.188,1.188,0,0,0-1.246,1.136l-.305,6.265-.3,6.265a1.189,1.189,0,0,0,1.131,1.252l4.745.233a1.19,1.19,0,0,0,1.247-1.135l.305-6.265.3-6.266A1.19,1.19,0,0,0,117.21,122.9Z"
            fill="#fff" />
        <path id="Path_532" data-name="Path 532"
            d="M93.989,135.285a1.916,1.916,0,0,1,1.89-1.815.165.165,0,0,0,0-.024l-1.788-.088a1.931,1.931,0,0,1,.188-3.858l-1.919-.092a1.931,1.931,0,0,1,.188-3.858l-7.684-.374a1.931,1.931,0,0,1,.188-3.858l1.228.059,10.3.5,1.387.068a.6.6,0,0,0,.532-.417.587.587,0,0,0-.184-.641c-1.774-1.509-3.6-1.509-3.5-3.552a1.358,1.358,0,0,1,.71-1.126,1.342,1.342,0,0,1,1.324.049l12.657,6.672a.965.965,0,0,1,.449.869c-.082,1.689-.372,7.638-.546,11.263a2.886,2.886,0,0,1-3.02,2.752c-5.147-.252-10.565-.514-10.565-.514A1.935,1.935,0,0,1,93.989,135.285Z"
            fill="#e7c0a0" />
        <path id="Path_533" data-name="Path 533"
            d="M157.941,140.9c-.116,0-.232,0-.348-.01l-44.742-1.873.691-16.718,34.013,2.693-7.322-17.407,14.3-5.469L165.345,128.7a8.364,8.364,0,0,1-7.4,12.2Z"
            fill="#fcfcfd" />
    </g>
    <path id="Path_534" data-name="Path 534"
        d="M77.856,19.257c0,8.426-15.3,30.662-15.3,30.662s-15.3-22.233-15.3-30.662a15.3,15.3,0,0,1,30.593,0Z"
        fill="#2b2d7b" />
    <path id="Path_535" data-name="Path 535"
        d="M62.56,25.76a7.173,7.173,0,1,0-7.192-7.174A7.183,7.183,0,0,0,62.56,25.76Z" fill="#fff" />
    <path id="Path_536" data-name="Path 536"
        d="M49.884,20.6A13.3,13.3,0,0,1,73.7,12.517,13.279,13.279,0,1,0,51.652,27.2,13.15,13.15,0,0,1,49.884,20.6Z"
        fill="#3e9aff" />
    <path id="Path_537" data-name="Path 537" d="M9.583,142v15.159" fill="none" stroke="#8dc4ff"
        stroke-linecap="round" stroke-miterlimit="10" stroke-width="4" />
    <path id="Path_538" data-name="Path 538" d="M17.168,149.576H2" fill="none" stroke="#8dc4ff"
        stroke-linecap="round" stroke-miterlimit="10" stroke-width="4" />
    <path id="Path_539" data-name="Path 539" d="M173.583,137v15.159" fill="none" stroke="#1e2a55"
        stroke-linecap="round" stroke-miterlimit="10" stroke-width="4" />
    <path id="Path_540" data-name="Path 540" d="M181.168,144.576H166" fill="none" stroke="#1e2a55"
        stroke-linecap="round" stroke-miterlimit="10" stroke-width="4" />
    <path id="Path_541" data-name="Path 541" d="M18.625,19v7.259" fill="none" stroke="#8dc4ff"
        stroke-linecap="round" stroke-miterlimit="10" stroke-width="4" />
    <path id="Path_542" data-name="Path 542" d="M22.259,22.633H15" fill="none" stroke="#8dc4ff"
        stroke-linecap="round" stroke-miterlimit="10" stroke-width="4" />
    <path id="Path_543" data-name="Path 543" d="M149.625,2V9.259" fill="none" stroke="#1e2a55"
        stroke-linecap="round" stroke-miterlimit="10" stroke-width="4" />
    <path id="Path_544" data-name="Path 544" d="M153.259,5.633H146" fill="none" stroke="#1e2a55"
        stroke-linecap="round" stroke-miterlimit="10" stroke-width="4" />
</svg>
