<svg width="131" height="131" viewBox="0 0 131 131" fill="none" xmlns="http://www.w3.org/2000/svg">
    <defs>
        <filter id="filter0_d" x="0" y="0" width="131" height="131" filterUnits="userSpaceOnUse"
            color-interpolation-filters="sRGB">
            <feFlood flood-opacity="0" result="BackgroundImageFix" />
            <feColorMatrix in="SourceAlpha" type="matrix"
                values="0 0 0 0 0 0 0 0 0 0 0 0 0 0 0 0 0 0 127 0" />
            <feOffset dy="10" />
            <feGaussianBlur stdDeviation="8" />
            <feColorMatrix type="matrix" values="0 0 0 0 1 0 0 0 0 1 0 0 0 0 1 0 0 0 0.5 0" />
            <feBlend mode="normal" in2="BackgroundImageFix" result="effect1_dropShadow" />
            <feBlend mode="normal" in="SourceGraphic" in2="effect1_dropShadow" result="shape" />
        </filter>
    </defs>
    <g filter="url(#filter0_d)">
        <rect x="16" y="6" width="99" height="99" rx="15" fill="white" />
    </g>
    <path
        d="M93.5206 56.4038C93.0061 57.0902 92.4451 57.7404 91.8416 58.35L91.8008 58.394L85.9183 64.2765L79.5391 70.6557L73.7258 76.469L68.4658 81.7352L68.2394 81.9585L68.0728 82.122L65.872 84.3228L63.4731 81.927L51.2428 69.6999L51.1799 69.6339L47.4385 65.8925L47.3222 65.773L43.8072 62.2423L43.6689 62.1008L39.896 58.328C36.464 54.8958 34.5359 50.2409 34.5359 45.3871C34.5359 40.5334 36.464 35.8785 39.896 32.4463L39.9809 32.3614C41.6801 30.6617 43.6976 29.3133 45.918 28.3934C48.1384 27.4735 50.5183 27 52.9217 27C55.3252 27 57.7051 27.4735 59.9255 28.3934C62.1459 29.3133 64.1633 30.6617 65.8625 32.3614C66.4081 31.8219 66.9867 31.3169 67.5949 30.8492C70.7845 28.3892 74.695 27.0472 78.7229 27.0301C82.7509 27.0131 86.6726 28.322 89.8829 30.7548C90.5624 31.2681 91.2063 31.827 91.8102 32.4275C94.9294 35.5511 96.819 39.6938 97.1331 44.0969C97.4472 48.5001 96.1647 52.869 93.5206 56.4038Z"
        fill="#E84684" />
    <path
        d="M89.3672 60.5948C88.9297 61.178 88.4528 61.7305 87.9399 62.2486L87.9053 62.2832L85.9182 64.2733L82.9063 67.2727L80.0924 70.1024L79.539 70.6589L77.486 72.7088L73.7131 76.4816L72.5436 77.648L68.4563 81.7353L68.23 81.9585L68.0633 82.122L67.3119 82.8703L65.8656 84.3197L63.473 81.9302L51.3025 69.7628L51.2428 69.6999L47.4385 65.8925L43.8072 62.2423L43.6688 62.1008C40.8127 59.1722 39.2256 55.236 39.2515 51.1454C39.2774 47.0547 40.9142 43.139 43.8072 40.2467L43.8795 40.1744C45.3224 38.7284 47.0364 37.5812 48.9233 36.7984C50.8102 36.0157 52.8329 35.6128 54.8757 35.6128C56.9185 35.6128 58.9412 36.0157 60.8281 36.7984C62.715 37.5812 64.429 38.7284 65.8719 40.1744C68.6656 37.3912 72.4096 35.7693 76.3507 35.6349C80.2919 35.5004 84.1377 36.8635 87.1145 39.4499C90.0913 42.0363 91.9781 45.654 92.3955 49.5753C92.8129 53.4965 91.7298 57.4304 89.3641 60.5854L89.3672 60.5948Z"
        fill="#ED5A96" />
    <path
        d="M85.4813 64.5123C85.1182 64.9999 84.721 65.4611 84.2928 65.8926L84.2614 65.924L82.9063 67.2728L80.4288 69.7471L80.4037 69.7723L80.0893 70.0867L77.4829 72.6931L77.1024 73.0704L73.534 76.6577L72.5436 77.6481L70.2705 79.9181L68.2394 81.9491L68.0728 82.1158L67.3214 82.864L65.8751 84.3134L63.4731 81.9303L51.3026 69.7629L51.2428 69.7L47.4385 65.8926L47.3222 65.7731C44.9414 63.3281 43.6189 60.0441 43.6406 56.6316C43.6624 53.219 45.0268 49.9522 47.4385 47.5377L47.4983 47.478C49.0364 45.9395 50.9368 44.8126 53.0246 44.2011C55.1124 43.5896 57.3205 43.5131 59.4456 43.9787C61.8783 44.4992 64.1094 45.7098 65.872 47.4654C66.2606 47.0845 66.6711 46.7265 67.1013 46.3933C69.5955 44.473 72.7006 43.5209 75.8425 43.713C78.9844 43.9051 81.9505 45.2284 84.1921 47.4382C86.4338 49.648 87.7994 52.5949 88.0364 55.7337C88.2734 58.8725 87.3657 61.991 85.4813 64.5123Z"
        fill="#EF73AC" />
    <path
        d="M81.3688 68.6686C81.0797 69.0534 80.7645 69.4179 80.4256 69.7596L80.4005 69.7848L80.0861 70.0992L77.4797 72.7056L77.0992 73.0828L73.5339 76.6576L72.5436 77.648L70.2704 79.918L68.2394 81.949L68.0727 82.1156L67.3213 82.8639L65.8719 84.3102L63.473 81.9301L51.3119 69.7596L51.2522 69.6967L51.1893 69.6307C49.3189 67.6969 48.2835 65.1055 48.3064 62.4152C48.3293 59.725 49.4088 57.1515 51.3119 55.2499L51.3591 55.2028C52.5745 53.9847 54.0773 53.0927 55.7286 52.6091C57.3799 52.1255 59.1265 52.066 60.8069 52.436C61.7449 52.6415 62.6489 52.9792 63.4919 53.439C64.3655 53.9125 65.166 54.5097 65.8688 55.2122C66.1752 54.9099 66.4996 54.6264 66.8403 54.3633C68.8109 52.8452 71.2646 52.0921 73.7475 52.2432C76.2305 52.3944 78.5747 53.4395 80.3466 55.1854C82.1186 56.9313 83.1984 59.2597 83.3863 61.7402C83.5742 64.2206 82.8575 66.6852 81.3688 68.6781V68.6686Z"
        fill="#EF8BBD" />
    <path
        d="M68.2394 62.217V81.9552L68.0727 82.1187L65.8719 84.3195L63.473 81.9301V62.217C63.4614 61.8974 63.5143 61.5787 63.6286 61.28C63.7429 60.9813 63.9162 60.7087 64.1382 60.4784C64.3602 60.2482 64.6264 60.0651 64.9207 59.94C65.2151 59.815 65.5316 59.7505 65.8515 59.7505C66.1713 59.7505 66.4878 59.815 66.7822 59.94C67.0766 60.0651 67.3427 60.2482 67.5647 60.4784C67.7867 60.7087 67.96 60.9813 68.0743 61.28C68.1886 61.5787 68.2415 61.8974 68.2299 62.217H68.2394Z"
        fill="white" />
    <path
        d="M71.1068 69.6024C72.4212 69.6024 73.4868 68.5375 73.4868 67.2239C73.4868 65.9103 72.4212 64.8455 71.1068 64.8455H60.612C59.2976 64.8455 58.232 65.9103 58.232 67.2239C58.232 68.5375 59.2976 69.6024 60.612 69.6024H71.1068Z"
        fill="white" />

</svg>
