<svg width="14" height="20" viewBox="0 0 14 20" fill="none" xmlns="http://www.w3.org/2000/svg">
    <path
        d="M9.71872 13.0791L8.06698 11.8784H5.89567L4.28114 13.0791L2.92603 14.1141L3.07959 16.5802L7.10087 17.7916L10.6101 16.1057L11.0504 14.0963L9.71872 13.0791Z"
        fill="#FFE0D1" />
    <path
        d="M4.32876 2.07828L3.92163 2.24617C2.62476 2.78099 1.9529 4.21933 2.37503 5.55714L2.79354 6.88345L3.56835 9.38808L8.55418 3.17227L5.06147 1.67256L4.32876 2.07828Z"
        fill="#F2AB6A" />
    <path
        d="M9.71872 13.0791L8.06698 11.8784H5.89567L4.28114 13.0791L3.6877 13.5324L2.92603 14.1141L3.02119 15.6426C3.18354 15.4835 3.35612 15.3332 3.53908 15.1934L4.19152 14.6951C4.44308 14.503 4.78552 14.4893 5.05599 14.6537C5.24204 14.7668 5.43505 14.871 5.63469 14.9653L6.50865 15.3783C6.65548 15.4477 6.8189 15.4844 6.98132 15.4844C7.14374 15.4844 7.30717 15.4477 7.45399 15.3783L8.32795 14.9653C9.084 14.6081 9.74608 14.1116 10.2902 13.5157L9.71872 13.0791Z"
        fill="#FFD1C2" />
    <path
        d="M11.2003 9.13633C11.247 11.3338 9.9974 13.3533 8.01017 14.2922L7.13618 14.7052C7.03825 14.7515 6.92478 14.7515 6.82685 14.7052L5.95286 14.2922C3.96563 13.3533 2.71607 11.3338 2.76274 9.13633L2.77681 7.47435H11.2015L11.2003 9.13633Z"
        fill="#F2AB6A" />
    <path
        d="M4.34968 7.47437H3.01028H2.77681L2.76274 9.13635C2.71607 11.3338 3.96563 13.3533 5.95286 14.2923L6.82685 14.7052C6.92477 14.7515 7.03825 14.7515 7.13614 14.7052L7.76795 14.4067L7.52577 14.2923C6.07869 13.6085 5.02307 12.3517 4.574 10.8705C4.55747 10.816 4.60094 10.7628 4.65785 10.7649C4.67743 10.7657 4.697 10.7661 4.71662 10.7661H4.71677C4.98038 10.7661 5.2357 10.7055 5.47565 10.5862L6.16329 10.2442C6.2962 10.1781 6.45248 10.1687 6.58858 10.2278C6.71773 10.284 6.85815 10.3137 7.0001 10.3137C7.13755 10.3137 7.27351 10.2858 7.39886 10.2334C7.53954 10.1746 7.69791 10.1751 7.83442 10.243L8.52456 10.5862C8.76454 10.7055 9.01986 10.766 9.28348 10.766C10.2244 10.766 10.9899 10.0001 10.9899 9.05871V7.47433H4.34968V7.47437Z"
        fill="#F19B4E" />
    <path
        d="M3.26818 8.62489C2.78728 8.62489 2.39746 8.23507 2.39746 7.75417C2.39746 7.27328 2.78728 6.88345 3.26818 6.88345H5.23702V8.62489H3.26818Z"
        fill="#FFD1C2" />
    <path
        d="M5.06159 1.67259L4.32888 2.07827L3.92175 2.2462C3.80935 2.29257 3.70216 2.34527 3.59947 2.40453C3.57897 2.49243 3.56337 2.5831 3.5541 2.67469C3.48484 3.35846 3.7495 4.05776 4.24707 4.51524L5.82877 6.57021L8.5543 3.1723L5.06159 1.67259Z"
        fill="#F19B4E" />
    <path
        d="M10.3712 2.2672L9.95142 1.7923L10.011 1.43463C10.0281 1.33228 9.94583 1.24073 9.84237 1.24668L9.03324 1.29246C8.88847 1.30065 8.74369 1.27943 8.6071 1.2303L8.5762 1.21914C8.09051 1.04384 7.5836 0.957123 7.07817 0.957123C6.33009 0.957123 5.58535 1.14731 4.9184 1.52172C3.85582 2.11833 3.89564 3.47382 4.65787 4.1337L6.29436 6.25979L10.4315 8.47408C10.7244 7.96233 11.2682 7.00694 11.321 6.88338L11.4081 6.53799C11.7893 5.03066 11.4014 3.43213 10.3712 2.2672Z"
        fill="#F2AB6A" />
    <path
        d="M10.7318 8.62489C11.2126 8.62489 11.6025 8.23507 11.6025 7.75417C11.6025 7.27328 11.2126 6.88345 10.7318 6.88345H8.14185V8.62489H10.7318Z"
        fill="#FFD1C2" />
    <path
        d="M10.4316 8.47409V9.05878C10.4316 9.91071 9.5358 10.4656 8.7732 10.0864L7.79808 9.60143C7.73109 9.5683 7.65888 9.55193 7.58705 9.55193C7.48247 9.55193 7.37863 9.58654 7.2934 9.65353C7.20743 9.72164 7.10359 9.75551 7.00012 9.75551C6.89666 9.75551 6.79282 9.72164 6.70684 9.65353C6.56281 9.54039 6.3663 9.51992 6.20216 9.60143L5.22705 10.0864C4.46445 10.4656 3.5686 9.91071 3.5686 9.05878V6.83611C3.5686 6.11668 3.78559 5.41363 4.19089 4.81926L4.65798 4.1337C4.92297 4.36296 5.27543 4.50849 5.69935 4.50849H8.66266C8.95519 4.50849 9.23842 4.58069 9.48927 4.71356C9.7405 4.84605 9.95971 5.03959 10.1242 5.28114C10.3245 5.57479 10.4316 5.92203 10.4316 6.27747V8.47409Z"
        fill="#FFE0D1" />
    <path
        d="M8.0672 11.8785L8.44816 11.222C8.50455 11.1248 8.46264 11.0002 8.35899 10.9569C7.47759 10.5885 6.48531 10.5885 5.60388 10.9569C5.50022 11.0002 5.45832 11.1248 5.5147 11.222L5.89567 11.8785C6.00014 12.0586 6.21474 12.143 6.41386 12.0825L6.54185 12.0435C6.82843 11.9564 7.13447 11.9564 7.42105 12.0435L7.54905 12.0825C7.74816 12.143 7.96276 12.0586 8.0672 11.8785Z"
        fill="#FFD1C2" />
    <path
        d="M6.89681 17.0257C6.86477 17.015 4.98424 17.1243 4.98424 17.1243L3.88363 17.0684L2.44116 18.9169L2.85908 19.4237H7.82622L8.4034 18.5109C8.4034 18.5109 6.92889 17.0363 6.89681 17.0257Z"
        fill="#C0DCA3" />
    <path
        d="M3.82231 14.825L2.92609 14.1141L2.1888 14.6772C0.809496 15.7309 0 17.3677 0 19.1036V19.1164C0 19.2861 0.137559 19.4237 0.307236 19.4237H2.8591L3.16876 19.2785C4.05976 18.8606 4.72336 18.0734 4.98426 17.1243L5.23563 16.0967L3.82231 14.825Z"
        fill="#C0DCA3" />
    <path
        d="M14 19.1036V19.1165C14 19.2861 13.8624 19.4237 13.6927 19.4237H7.8262L7.68886 19.3571C6.61065 18.8342 5.68727 18.0641 4.98422 17.1244C4.47098 16.4384 4.07535 15.6621 3.82227 14.825C5.67275 16.2922 8.28994 16.2922 10.1404 14.825L11.0366 14.1141L11.0504 14.0963L11.8112 14.6773C13.1905 15.7309 14 17.3678 14 19.1036Z"
        fill="#C0DCA3" />
    <path
        d="M3.53915 15.1934L3.92127 14.9015L3.82231 14.825L2.9261 14.1141L2.1888 14.6772C0.809496 15.7309 0 17.3677 0 19.1036V19.1164C0 19.2861 0.137559 19.4237 0.307236 19.4237H1.35418C1.41265 17.7612 2.21192 16.2073 3.53915 15.1934Z"
        fill="#A1CC7A" />
</svg>
