<svg width="18" height="18" viewBox="0 0 18 18" fill="none" xmlns="http://www.w3.org/2000/svg">
<path d="M0.600098 3C0.600098 2.36348 0.852954 1.75303 1.30304 1.30294C1.75313 0.852857 2.36358 0.6 3.0001 0.6H11.4001C12.0366 0.6 12.6471 0.852857 13.0972 1.30294C13.5472 1.75303 13.8001 2.36348 13.8001 3V11.4H17.4001V13.8C17.4001 14.7548 17.0208 15.6705 16.3457 16.3456C15.6706 17.0207 14.7549 17.4 13.8001 17.4H4.2001C3.24532 17.4 2.32964 17.0207 1.65451 16.3456C0.979382 15.6705 0.600098 14.7548 0.600098 13.8V3ZM13.8001 16.2C14.4366 16.2 15.0471 15.9471 15.4972 15.4971C15.9472 15.047 16.2001 14.4365 16.2001 13.8V12.6H13.8001V16.2ZM4.8001 4.2C4.64097 4.2 4.48836 4.26321 4.37583 4.37574C4.26331 4.48826 4.2001 4.64087 4.2001 4.8C4.2001 4.95913 4.26331 5.11174 4.37583 5.22426C4.48836 5.33679 4.64097 5.4 4.8001 5.4H9.6001C9.75923 5.4 9.91184 5.33679 10.0244 5.22426C10.1369 5.11174 10.2001 4.95913 10.2001 4.8C10.2001 4.64087 10.1369 4.48826 10.0244 4.37574C9.91184 4.26321 9.75923 4.2 9.6001 4.2H4.8001ZM4.8001 7.8C4.64097 7.8 4.48836 7.86321 4.37583 7.97574C4.26331 8.08826 4.2001 8.24087 4.2001 8.4C4.2001 8.55913 4.26331 8.71174 4.37583 8.82427C4.48836 8.93679 4.64097 9 4.8001 9H9.6001C9.75923 9 9.91184 8.93679 10.0244 8.82427C10.1369 8.71174 10.2001 8.55913 10.2001 8.4C10.2001 8.24087 10.1369 8.08826 10.0244 7.97574C9.91184 7.86321 9.75923 7.8 9.6001 7.8H4.8001ZM4.8001 11.4C4.64097 11.4 4.48836 11.4632 4.37583 11.5757C4.26331 11.6883 4.2001 11.8409 4.2001 12C4.2001 12.1591 4.26331 12.3117 4.37583 12.4243C4.48836 12.5368 4.64097 12.6 4.8001 12.6H7.2001C7.35923 12.6 7.51184 12.5368 7.62436 12.4243C7.73688 12.3117 7.8001 12.1591 7.8001 12C7.8001 11.8409 7.73688 11.6883 7.62436 11.5757C7.51184 11.4632 7.35923 11.4 7.2001 11.4H4.8001Z" fill="white"/>
</svg>
