<svg width="21" height="20" viewBox="0 0 21 20" fill="none" xmlns="http://www.w3.org/2000/svg">
<path d="M1.26504 0.461186L19.691 9.54039C19.7915 9.5899 19.8761 9.66656 19.9353 9.76167C19.9945 9.85679 20.0258 9.96657 20.0258 10.0786C20.0258 10.1906 19.9945 10.3004 19.9353 10.3955C19.8761 10.4906 19.7915 10.5673 19.691 10.6168L1.26384 19.696C1.16061 19.7467 1.04497 19.7667 0.930707 19.7535C0.816443 19.7404 0.708366 19.6947 0.619348 19.6218C0.530329 19.549 0.46412 19.4521 0.428607 19.3427C0.393094 19.2333 0.389773 19.116 0.419039 19.0048L2.24424 12.1108C2.27383 11.9992 2.33496 11.8986 2.42031 11.8209C2.50566 11.7432 2.6116 11.6918 2.72544 11.6728L10.9826 10.2964C11.0318 10.2882 11.0782 10.268 11.1176 10.2374C11.157 10.2068 11.1882 10.1668 11.2082 10.1212L11.2298 10.0492C11.241 9.98246 11.2294 9.9139 11.1967 9.85464C11.164 9.79539 11.1123 9.74892 11.0498 9.72279L10.9826 9.70359L2.67984 8.31999C2.56622 8.30078 2.46053 8.24926 2.37541 8.17159C2.29029 8.09392 2.22934 7.99338 2.19984 7.88199L0.419039 1.15359C0.389468 1.04227 0.39256 0.924803 0.427944 0.8152C0.463329 0.705596 0.529511 0.608493 0.618589 0.535486C0.707666 0.462478 0.815873 0.41665 0.930291 0.403475C1.04471 0.3903 1.1605 0.410335 1.26384 0.461186H1.26504Z" fill="#333333"/>
</svg>
