<svg width="18" height="18" viewBox="0 0 18 18" fill="none" xmlns="http://www.w3.org/2000/svg">
    <path
        d="M13.2072 4.33507C13.2072 5.5264 12.78 6.5576 11.9372 7.40053C11.0944 8.24332 10.063 8.67055 8.87172 8.67055H8.86966C7.67984 8.67014 6.64919 8.2429 5.8064 7.40053C4.96347 6.5576 4.53638 5.5264 4.53638 4.33507C4.53638 3.14415 4.96347 2.11281 5.8064 1.27002C6.64877 0.427505 7.67943 0.000411989 8.86966 0H8.87172C10.0626 0 11.094 0.427231 11.9372 1.27002C12.78 2.11281 13.2072 3.14415 13.2072 4.33507Z"
        fill="#FFBB85" />
    <path
        d="M16.4942 14.9043C16.4942 15.8442 16.1952 16.6051 15.6064 17.1656C15.0244 17.7194 14.2546 18 13.3187 18H4.65161C3.71571 18 2.94598 17.7194 2.3644 17.1656C1.77512 16.6047 1.47656 15.8439 1.47656 14.9043C1.47656 14.5429 1.48851 14.1853 1.51241 13.8414C1.53671 13.4898 1.58588 13.1072 1.65839 12.7036C1.73145 12.2967 1.82538 11.9121 1.93785 11.5605C2.05458 11.1966 2.21251 10.8376 2.40793 10.4937C2.6109 10.1368 2.8493 9.8259 3.11655 9.56992C3.3967 9.30199 3.7392 9.08679 4.13512 8.92996C4.52966 8.77396 4.96706 8.69485 5.43507 8.69485C5.61868 8.69485 5.79652 8.76997 6.1393 8.99327C6.35381 9.13321 6.601 9.29251 6.87387 9.46692C7.10953 9.61716 7.42868 9.75806 7.82323 9.88536C8.16998 9.99756 8.52196 10.0602 8.86967 10.071C8.90799 10.0724 8.9463 10.0731 8.98462 10.0731C9.37079 10.0731 9.76135 10.0098 10.1464 9.88536C10.541 9.75806 10.8605 9.61716 11.0961 9.46692C11.3718 9.29073 11.619 9.13156 11.8304 8.99368C12.1734 8.76997 12.351 8.69485 12.535 8.69485C13.0026 8.69485 13.44 8.77396 13.8348 8.92996C14.2307 9.08679 14.5732 9.3024 14.8531 9.56992C15.1208 9.8259 15.3592 10.1368 15.562 10.4937C15.7576 10.8379 15.9158 11.1966 16.0321 11.5601C16.1447 11.9121 16.2389 12.2967 16.312 12.7039C16.384 13.1079 16.4333 13.4905 16.4575 13.8411C16.4818 14.1839 16.4938 14.5415 16.4942 14.9043Z"
        fill="#6AA9FF" />
    <path
        d="M8.87169 8.67055H8.86963V0H8.87169C10.0626 0 11.0939 0.427231 11.9371 1.27002C12.7799 2.11281 13.2072 3.14415 13.2072 4.33507C13.2072 5.5264 12.7799 6.5576 11.9371 7.40053C11.0944 8.24332 10.063 8.67055 8.87169 8.67055Z"
        fill="#F5A86C" />
    <path
        d="M16.4941 14.9043C16.4941 15.8442 16.1952 16.6051 15.6063 17.1656C15.0243 17.7194 14.2546 18 13.3187 18H8.86963V10.071C8.90794 10.0724 8.94626 10.0731 8.98457 10.0731C9.37074 10.0731 9.76131 10.0098 10.1464 9.88536C10.5409 9.75806 10.8605 9.61716 11.096 9.46692C11.3718 9.29073 11.619 9.13156 11.8303 8.99368C12.1734 8.76997 12.3509 8.69485 12.5349 8.69485C13.0025 8.69485 13.4399 8.77396 13.8348 8.92996C14.2307 9.08679 14.5732 9.3024 14.8531 9.56992C15.1207 9.8259 15.3591 10.1368 15.562 10.4937C15.7575 10.8379 15.9157 11.1966 16.032 11.5601C16.1446 11.9121 16.2388 12.2967 16.3119 12.7039C16.384 13.1079 16.4333 13.4905 16.4575 13.8411C16.4818 14.1839 16.4937 14.5415 16.4941 14.9043Z"
        fill="#2682FF" />
</svg>
