<svg width="18" height="18" viewBox="0 0 18 18" fill="none" xmlns="http://www.w3.org/2000/svg">
<path d="M14.4001 10.2H13.2001C13.041 10.2 12.8884 10.2632 12.7758 10.3757C12.6633 10.4882 12.6001 10.6408 12.6001 10.8C12.6001 10.9591 12.6633 11.1117 12.7758 11.2242C12.8884 11.3368 13.041 11.4 13.2001 11.4H14.4001C14.5592 11.4 14.7118 11.3368 14.8244 11.2242C14.9369 11.1117 15.0001 10.9591 15.0001 10.8C15.0001 10.6408 14.9369 10.4882 14.8244 10.3757C14.7118 10.2632 14.5592 10.2 14.4001 10.2ZM2.4001 0.599976C1.92271 0.599976 1.46487 0.789618 1.12731 1.12718C0.78974 1.46475 0.600098 1.92259 0.600098 2.39998V14.4C0.600098 15.1956 0.916168 15.9587 1.47878 16.5213C2.04139 17.0839 2.80445 17.4 3.6001 17.4H15.6001C16.0775 17.4 16.5353 17.2103 16.8729 16.8728C17.2105 16.5352 17.4001 16.0774 17.4001 15.6V4.79998C17.4003 4.42758 17.285 4.0643 17.0701 3.76019C16.8551 3.45607 16.5512 3.22611 16.2001 3.10198V2.39998C16.2001 1.92259 16.0105 1.46475 15.6729 1.12718C15.3353 0.789618 14.8775 0.599976 14.4001 0.599976H2.4001ZM1.8001 14.4V4.09798C1.9873 4.16398 2.1901 4.19998 2.4001 4.19998H15.6001C15.7592 4.19998 15.9118 4.26319 16.0244 4.37571C16.1369 4.48823 16.2001 4.64085 16.2001 4.79998V15.6C16.2001 15.7591 16.1369 15.9117 16.0244 16.0242C15.9118 16.1368 15.7592 16.2 15.6001 16.2H3.6001C3.12271 16.2 2.66487 16.0103 2.32731 15.6728C1.98974 15.3352 1.8001 14.8774 1.8001 14.4ZM2.4001 1.79998H14.4001C14.5592 1.79998 14.7118 1.86319 14.8244 1.97571C14.9369 2.08823 15.0001 2.24085 15.0001 2.39998V2.99998H2.4001C2.24097 2.99998 2.08836 2.93676 1.97583 2.82424C1.86331 2.71172 1.8001 2.55911 1.8001 2.39998C1.8001 2.24085 1.86331 2.08823 1.97583 1.97571C2.08836 1.86319 2.24097 1.79998 2.4001 1.79998Z" fill="#787878"/>
</svg>
