<svg width="18" height="18" viewBox="0 0 18 18" fill="none" xmlns="http://www.w3.org/2000/svg">
<path d="M0.600098 2.39998C0.600098 1.92259 0.78974 1.46475 1.12731 1.12718C1.46487 0.789618 1.92271 0.599976 2.4001 0.599976H14.4001C14.8775 0.599976 15.3353 0.789618 15.6729 1.12718C16.0105 1.46475 16.2001 1.92259 16.2001 2.39998V3.10198C16.5512 3.22611 16.8551 3.45607 17.0701 3.76019C17.285 4.0643 17.4003 4.42758 17.4001 4.79998V15.6C17.4001 16.0774 17.2105 16.5352 16.8729 16.8728C16.5353 17.2103 16.0775 17.4 15.6001 17.4H3.6001C2.80445 17.4 2.04139 17.0839 1.47878 16.5213C0.916168 15.9587 0.600098 15.1956 0.600098 14.4V2.39998ZM1.8001 2.39998C1.8001 2.55911 1.86331 2.71172 1.97583 2.82424C2.08836 2.93676 2.24097 2.99998 2.4001 2.99998H15.0001V2.39998C15.0001 2.24085 14.9369 2.08823 14.8244 1.97571C14.7118 1.86319 14.5592 1.79998 14.4001 1.79998H2.4001C2.24097 1.79998 2.08836 1.86319 1.97583 1.97571C1.86331 2.08823 1.8001 2.24085 1.8001 2.39998ZM14.4001 10.2H13.2001C13.041 10.2 12.8884 10.2632 12.7758 10.3757C12.6633 10.4882 12.6001 10.6408 12.6001 10.8C12.6001 10.9591 12.6633 11.1117 12.7758 11.2242C12.8884 11.3368 13.041 11.4 13.2001 11.4H14.4001C14.5592 11.4 14.7118 11.3368 14.8244 11.2242C14.9369 11.1117 15.0001 10.9591 15.0001 10.8C15.0001 10.6408 14.9369 10.4882 14.8244 10.3757C14.7118 10.2632 14.5592 10.2 14.4001 10.2Z" fill="#BF13BF"/>
</svg>
